<svg xmlns="http://www.w3.org/2000/svg" xmlns:xlink="http://www.w3.org/1999/xlink" width="293" height="278" viewBox="0 0 293 278">
  <defs>
    <clipPath id="clip-path">
      <rect id="Rectangle_19" data-name="Rectangle 19" width="293" height="278" fill="#fff" stroke="#707070" stroke-width="1"/>
    </clipPath>
  </defs>
  <g id="Mask_Group_4" data-name="Mask Group 4" clip-path="url(#clip-path)">
    <g id="Group_4" data-name="Group 4">
      <path id="Path_1" data-name="Path 1" d="M39.571,274.248c15.849,17.081,35.488,31.934,57.691,36.789,29.433,6.437,60.679-4.578,84.281-23.306,13.484-10.7,25.848-24.3,42.584-28.333,24.671-5.94,48.417,10.789,72.868,17.577,40.808,11.329,87.028-7.6,111.626-42.072S436.8,153.193,421.7,113.626,374.336,42.269,336.376,23.49,255.137-1.726,212.839.384c-66.664,3.325-140.1,34.4-181.558,88.244-37.291,48.425-43.566,118.064-6.143,168.229A212.171,212.171,0,0,0,39.571,274.248Z" transform="matrix(0.914, -0.407, 0.407, 0.914, -180.164, -3.476)" fill="#d3b379"/>
      <path id="Path_2" data-name="Path 2" d="M176.591,204.346c-19.144,14.031-32.246,35.452-12.683,56.95,7.948,8.734,19.127,13.973,30.582,16.842a95.4,95.4,0,0,0,66.389-7.762c13.829-7.166,26.337-18.6,30.579-33.589,6.53-23.074-8.12-43.715-30.293-50.147-19.005-5.513-42.321-1.578-60.729,5A96.152,96.152,0,0,0,176.591,204.346Z" transform="translate(-37.639 -19.409)" fill="#d3b379"/>
      <g id="Group_2" data-name="Group 2" transform="translate(5.003 4.963)">
        <path id="Path_3" data-name="Path 3" d="M224.232,196.321c-.025-.334-.05-.669-.076-1a.631.631,0,0,0-.033-.926l-.041-.035c-.657-8.564-1.286-17.132-2-25.691a66.114,66.114,0,0,0-1.887-12.269,33.375,33.375,0,0,0-5.874-11.407,76.6,76.6,0,0,0-9.258-9.655,31.786,31.786,0,0,1,19,5.4c.5.337,1.328-.123,1.016-.761a71.343,71.343,0,0,1-7.141-30.266,16.153,16.153,0,0,0-1.149-6.907c-1.164-2.388-3.329-4.107-5.359-5.733A84.163,84.163,0,0,0,184.95,82.793a33.637,33.637,0,0,1,29.727,4.457.7.7,0,0,0,1.078-.807,118.569,118.569,0,0,1-5.54-19.006c-.641-3.189-1.143-6.4-1.525-9.632-.361-3.051-.681-6.189-2.058-8.983-2.633-5.343-8.2-8.448-13.54-10.533a51.592,51.592,0,0,0-32.939-1.516c2.031-6.384,8.464-10.477,14.845-11.628,7.636-1.376,15.4.767,22.7,2.861.677.195,1.364-.647.692-1.15-9.614-7.2-13.855-19.082-21.342-28.132a74.037,74.037,0,0,0-23.62-18.739c-18.85-9.536-43.009-11.367-61.845-.793C81.348-15.066,73.353-5.523,70.62,5.985,64.791.947,58.9-5.59,52.684-10.137,50.8-11.518,30.392-26.976,28.437-28.26c-.211-.139-.247.311-.247.311S61.017-.622,68.044,5.37c.531.454,1.055.914,1.581,1.373C46.116,11.205,29,33.442,28.191,56.947a64.444,64.444,0,0,0,8.972,34.424,67.678,67.678,0,0,0,5.272,7.773,38.589,38.589,0,0,0,5.985,6.577c5.039,3.975,9.3-2.384,12.177-5.786,7.845-9.261,22.986-10.94,32.786-3.91q-10.822,6.716-21.621,13.469c-2.537,1.587-5.237,3.293-6.787,5.942-1.66,2.837-1.017,5.828.524,8.564,6.883,12.224,17.149,22.778,28.252,31.225a147.559,147.559,0,0,0,37.847,20.5c13.7,5.108,27.887,8.187,42.318,10.344,14.843,2.218,29.918,3.947,44.143,8.977q2.626.928,5.2,2.01A.71.71,0,0,0,224.232,196.321Zm-3.4-28.185c.322,4.352.611,8.707.918,13.06q.422,5.941.842,11.881c-13.261-11.4-27.478-21.661-40.293-33.579a184.06,184.06,0,0,1-18.115-19.612,58.1,58.1,0,0,1,24.17,1.364A54.8,54.8,0,0,1,211.274,154.3a64.976,64.976,0,0,1,9.358,11.408Q220.746,166.921,220.835,168.136Zm2.1-29.644a32.524,32.524,0,0,0-19.527-4.352.654.654,0,0,0-.321,1.148c6.559,5.774,13.117,12.1,15.786,20.675a44.235,44.235,0,0,1,1.626,8.4,53.655,53.655,0,0,0-18.2-18,56.992,56.992,0,0,0-24.472-8.058,53.474,53.474,0,0,0-14.359.675c-5.308-6.68-10.233-13.674-14.876-20.856-4.565-7.061-8.876-14.276-13.1-21.543,11.174-6.771,25.733-3.881,37.3.31a96.222,96.222,0,0,1,34.633,22.395A140.778,140.778,0,0,1,222.4,137.277C222.578,137.682,222.751,138.089,222.933,138.493ZM182.573,82.2c-.5.2-.6,1.083-.016,1.258A83.7,83.7,0,0,1,209.122,96.8c2.078,1.564,4.4,3.186,5.886,5.354,1.573,2.289,1.637,5.043,1.676,7.719a73.217,73.217,0,0,0,1.7,14.962,71.247,71.247,0,0,0,2.673,9.051,110.028,110.028,0,0,0-11.346-13.749,103.28,103.28,0,0,0-16.9-14.2,91.992,91.992,0,0,0-18-9.389,71.971,71.971,0,0,0-19.586-4.791c-6.97-.591-14.191.258-20.276,3.883-4.53-7.81-8.968-15.675-13.51-23.476q-3.96-6.8-8.075-13.527A50.36,50.36,0,0,1,155.1,43.819a59.51,59.51,0,0,1,20.47,6.121c7.193,3.634,13.5,8.745,19.314,14.276,3.422,3.254,6.706,6.66,9.964,10.08a50.607,50.607,0,0,1,7.922,10.089A34.855,34.855,0,0,0,182.573,82.2ZM195.1,25.9c-6.995-1.889-14.4-3.434-21.528-1.7-6.78,1.651-13.109,6.3-14.828,13.328-.114.465.415.731.788.617a51,51,0,0,1,31.626.657c5.407,1.908,11.4,4.778,14.229,10.052,1.5,2.795,1.779,6.008,2.123,9.1.342,3.078.793,6.142,1.37,9.185a118.463,118.463,0,0,0,4.295,16.208,46.547,46.547,0,0,0-6.3-8.169c-2.937-3.148-5.969-6.221-9.039-9.24-5.984-5.887-12.342-11.475-19.694-15.6C165.068,43,149.328,40.394,134.807,44.58c-8.239,2.376-16.218,6.862-21.83,13.433A281.131,281.131,0,0,0,92.026,28.054c-.5-.612-1.006-1.217-1.513-1.823C99.04,13.663,113.173,5.958,128.13,4.081c15-1.882,30.163,1.626,43.763,7.912,8.188,3.785,15.65,8.69,23.071,13.771C195.009,25.808,195.051,25.853,195.1,25.9ZM89.932-18.445c9.568-6.1,21.181-8.6,32.437-8.326A72.761,72.761,0,0,1,174.854-1.825c4.008,4.637,7.137,9.851,10.369,15.034a73.745,73.745,0,0,0,6.785,9.5,137.455,137.455,0,0,0-17.3-10.143A96.774,96.774,0,0,0,152.474,4.6c-14.86-3.245-30.806-2.315-44.427,4.853a48.4,48.4,0,0,0-18.11,16.086A171.713,171.713,0,0,0,73.862,8.842q-1.28-1.157-2.58-2.289C73.884-3.8,80.994-12.751,89.932-18.445ZM51.606,105.6c-1.805-.095-3.08-1.626-4.223-2.851a67,67,0,0,1-5.562-6.815A65.077,65.077,0,0,1,29.757,62.58a53.249,53.249,0,0,1,9.028-33.405C46.1,18.448,57.343,10.293,70.242,7.979a.639.639,0,0,0,.452-.3c-.1.165,8.808,8.32,9.613,9.144,3.279,3.357,6.387,6.868,9.366,10.488A71.43,71.43,0,0,0,50.489,86.142,69.67,69.67,0,0,0,51.9,105.6C51.8,105.6,51.7,105.606,51.606,105.6Zm19.909,24.778c-1.976-2.76-4.277-5.732-5.512-8.915-1.356-3.49.606-6.293,3.28-8.4a112.487,112.487,0,0,1,9.533-6.233q5.391-3.429,10.766-6.881l5.271-3.382a.623.623,0,0,0,.014-.979c-8.072-6.123-19.592-6.6-28.425-1.811a24.857,24.857,0,0,0-5.89,4.4c-1.911,1.942-3.357,4.326-5.506,6.038a6.229,6.229,0,0,1-2.525,1.317,72.5,72.5,0,0,1,1.454-34.158,69.438,69.438,0,0,1,19.052-31.1,72.817,72.817,0,0,1,17.3-12.158c5.091,6.253,9.8,12.821,14.309,19.5q6.731,9.974,12.84,20.35c7.729,13.067,15.04,26.382,22.877,39.386a39.543,39.543,0,0,0-11.084,7.022,92.82,92.82,0,0,0-9.252,9.185,106.123,106.123,0,0,0-14.4,21.217,107.424,107.424,0,0,0-5.763,12.968A114,114,0,0,1,71.515,130.379Zm68.169,46.552a154.612,154.612,0,0,1-38.125-18.043c-.391-.259-.777-.526-1.165-.789a129.744,129.744,0,0,1,11.513-22.276,101.134,101.134,0,0,1,16.548-19.414,40.8,40.8,0,0,1,12.444-8.157q1.766,2.915,3.569,5.806c3.906,6.25,7.991,12.4,12.331,18.36a46.06,46.06,0,0,0-4.954,10.222,29.131,29.131,0,0,0-1.122,9.97,48.088,48.088,0,0,0,6.575,20.85,52.653,52.653,0,0,0,6.947,9.431A192.109,192.109,0,0,1,139.684,176.931Zm42.134,8.785c-5.457-.8-10.9-1.625-16.3-2.588a55.335,55.335,0,0,1-11.449-19.258c-2.174-6.3-3.214-13.238-1.614-19.8.952-3.906,2.941-7.435,4.873-10.927a196.291,196.291,0,0,0,19.18,22.609c12.843,12.87,27.612,23.564,41.563,35.16q2.345,1.949,4.653,3.945c.01.157.021.313.033.47C209.715,189.958,195.7,187.744,181.818,185.715Z" transform="translate(-28.156 27.985)" fill="#3c4b56"/>
        <path id="Path_4" data-name="Path 4" d="M172.156,65.09c1.588-2.1,2.731-5.167,1.68-7.752-1.2-2.951-4.619-3.907-7.473-4.375a61.773,61.773,0,0,0-23.525.777c-3.56.8-7.32,1.921-10.053,4.467a8.317,8.317,0,0,0-2.428,8.828,11.755,11.755,0,0,0,7.2,7.02c3.708,1.343,7.72,1.21,11.584.816C157.34,74.036,166.874,72.072,172.156,65.09Zm-21.321,8.269c-6.509.824-15.323,1.356-18.9-5.488a7.227,7.227,0,0,1,1.244-8.583c2.4-2.5,5.945-3.7,9.22-4.541a56.826,56.826,0,0,1,14.657-1.876,50.407,50.407,0,0,1,8.885.671,10.635,10.635,0,0,1,4.879,2.065c2.694,2.24,2.5,5.461.652,8.172C166.994,70.329,158.219,72.426,150.836,73.359Z" transform="translate(-26.201 29.525)" fill="#3c4b56"/>
        <path id="Path_5" data-name="Path 5" d="M112.5,120.556c2.217-2.635,3.791-5.927,3.382-9.443a7.882,7.882,0,0,0-5.5-6.754c-3.77-1.188-7.743.106-11.149,1.789a29.627,29.627,0,0,0-6.817,4.639,21.2,21.2,0,0,0-4.767,5.425c-1.747,2.9-2.809,6.393-1.805,9.741a7.765,7.765,0,0,0,7.165,5.471c3.787.241,7.37-1.592,10.525-3.485A35.667,35.667,0,0,0,112.5,120.556ZM95.435,129.9c-3.008.535-6.32-.307-7.857-3.159s-.882-6.218.446-9.009a22.252,22.252,0,0,1,7.995-8.786c.134-.086.265-.173.4-.258.058-.038.117-.073.175-.11.365-.224.734-.443,1.11-.654,2.876-1.617,6.279-3.055,9.64-2.948,3.01.095,5.857,1.626,6.852,4.592,1.008,3.008-.029,6.254-1.793,8.752a30.01,30.01,0,0,1-7.294,6.883C102.255,127.225,98.93,129.28,95.435,129.9Z" transform="translate(-27.056 30.518)" fill="#3c4b56"/>
      </g>
    </g>
  </g>
</svg>
